HIERARCHY
ROOT Hips
{
	OFFSET 0.00000 0.00000 0.00000
	CHANNELS 6 Xposition Yposition Zposition Zrotation Yrotation Xrotation 
	JOINT LHipJoint
	{
		OFFSET 0 0 0
		CHANNELS 3 Zrotation Yrotation Xrotation
		JOINT LeftHip
		{
			OFFSET 1.77779 -1.88989 0.48267
			CHANNELS 3 Zrotation Yrotation Xrotation
			JOINT LeftKnee
			{
				OFFSET 2.53442 -6.96327 0.00000
				CHANNELS 3 Zrotation Yrotation Xrotation
				JOINT LeftAnkle
				{
					OFFSET 2.71068 -7.44755 0.00000
					CHANNELS 3 Zrotation Yrotation Xrotation
					JOINT LeftToe
					{
						OFFSET 0.17992 -0.49431 2.22524
						CHANNELS 3 Zrotation Yrotation Xrotation
						End Site
						{
							OFFSET 0.00000 -0.00000 1.14687
						}
					}
				}
			}
		}
	}
	JOINT RHipJoint
	{
		OFFSET 0 0 0
		CHANNELS 3 Zrotation Yrotation Xrotation
		JOINT RightHip
		{
			OFFSET -1.58469 -1.88989 0.48267
			CHANNELS 3 Zrotation Yrotation Xrotation
			JOINT RightKnee
			{
				OFFSET -2.60386 -7.15404 0.00000
				CHANNELS 3 Zrotation Yrotation Xrotation
				JOINT RightAnkle
				{
					OFFSET -2.73334 -7.50979 0.00000
					CHANNELS 3 Zrotation Yrotation Xrotation
					JOINT RightToe
					{
						OFFSET -0.25618 -0.70384 2.21822
						CHANNELS 3 Zrotation Yrotation Xrotation
						End Site
						{
							OFFSET -0.00000 -0.00000 1.16381
						}
					}
				}
			}
		}
	}
	JOINT lowerback
	{
		OFFSET 0 0 0
		CHANNELS 3 Zrotation Yrotation Xrotation
		JOINT Chest
		{
			OFFSET 0.03410 2.01612 -0.22230
			CHANNELS 3 Zrotation Yrotation Xrotation
			JOINT Chest2
			{
				OFFSET 0.03465 2.03012 0.00937
				CHANNELS 3 Zrotation Yrotation Xrotation
				JOINT lowerneck
				{
					OFFSET 0 0 0
					CHANNELS 3 Zrotation Yrotation Xrotation
					JOINT Neck
					{
						OFFSET -0.00219 1.70459 0.20857
						CHANNELS 3 Zrotation Yrotation Xrotation
						JOINT Head
						{
							OFFSET 0.02518 1.72339 -0.22179
							CHANNELS 3 Zrotation Yrotation Xrotation
							End Site
							{
								OFFSET 0.00282 1.74122 -0.09823
							}
						}
					}
				}
				JOINT LeftCollar
				{
					OFFSET 0 0 0
					CHANNELS 3 Zrotation Yrotation Xrotation
					JOINT LeftShoulder
					{
						OFFSET 3.36358 1.00547 -0.37661
CHANNELS 3 Zrotation Xrotation Yrotation
						JOINT LeftElbow
						{
OFFSET 0 -5.065070 0.000000
CHANNELS 3 Zrotation Xrotation Yrotation
							JOINT LeftWrist
							{
OFFSET 0 -3.601960 0.000000
CHANNELS 3 Zrotation Xrotation Yrotation
								JOINT lhand
								{
									OFFSET 0 0 0
CHANNELS 3 Zrotation Xrotation Yrotation
									JOINT LFingers
									{
OFFSET 0 -0.450350 0.000000
CHANNELS 3 Zrotation Xrotation Yrotation
										End Site
										{
OFFSET 0 -0.363080 0.000000
										}
									}
								}
								JOINT LThumb
								{
OFFSET 0 0.000000 0.000000
CHANNELS 3 Zrotation Xrotation Yrotation
									End Site
									{
OFFSET 0 -0.368620 0.368620
									}
								}
							}
						}
					}
				}
				JOINT RightCollar
				{
					OFFSET 0 0 0
					CHANNELS 3 Zrotation Yrotation Xrotation
					JOINT RightShoulder
					{
						OFFSET -3.50159 0.80383 -0.71526
CHANNELS 3 Zrotation Xrotation Yrotation
						JOINT RightElbow
						{
OFFSET 0 -5.363940 0.000000
CHANNELS 3 Zrotation Xrotation Yrotation
							JOINT RightWrist
							{
OFFSET 0 -3.580350 0.000000
CHANNELS 3 Zrotation Xrotation Yrotation
								JOINT rhand
								{
									OFFSET 0 0 0
CHANNELS 3 Zrotation Xrotation Yrotation
									JOINT RFingers
									{
OFFSET 0 -0.663750 0.000000
CHANNELS 3 Zrotation Xrotation Yrotation
										End Site
										{
OFFSET 0 -0.535130 0.000000
										}
									}
								}
								JOINT RThumb
								{
OFFSET 0 0.000000 0.000000
CHANNELS 3 Zrotation Xrotation Yrotation
									End Site
									{
OFFSET 0 -0.543300 0.543300
									}
								}
							}
						}
					}
				}
			}
		}
	}
}
MOTION
Frames: 10
Frame Time: 0.008333333333333333
0.679300 17.972500 -22.266700 0.665400 -2.236300 -4.034100 0.000000 0.000000 0.000000 -25.011500 -5.496600 -7.625100 2.287800 9.441500 27.186500 0.000000 0.000000 0.000000 0.000000 0.000000 0.000000 0.000000 0.000000 0.000000 21.223700 8.340200 -22.005900 -14.484900 -19.254500 73.679900 0.005200 -3.522700 -4.774700 -0.119800 -2.231600 6.146100 -1.842600 0.489600 12.062500 0.421600 0.425000 0.731300 1.411200 0.263400 -6.018800 -1.890800 -2.852900 -16.141300 -0.313400 -3.410600 21.862600 -0.234700 -1.780600 9.609700 -0.000000 -0.000000 0.000000 3.624800 1.467700 -12.966900 10.495600 -17.511000 1.620900 26.001700 4.287900 -19.478000 0.000000 0.000000 0.000000 -7.125000 0.000000 0.000000 -2.358500 51.445300 0.374600 -0.000000 -0.000000 0.000000 0.622300 -3.597900 3.789000 -11.843400 -19.569400 -2.049500 -14.647500 4.844700 -12.718500 0.000000 0.000000 0.000000 7.125000 0.000000 -0.000000 8.737200 16.943600 5.881000
0.680111 17.956273 -22.155950 0.786765 -2.022441 -4.047825 0.000000 0.000000 0.000000 -25.219612 -5.540075 -7.225847 2.276441 9.419661 27.117129 0.297496 -1.932506 -8.028128 0.009128 0.507907 1.395864 0.000000 0.000000 0.000000 20.948719 8.398415 -22.721783 -14.338383 -19.213189 73.235076 -0.026510 -2.982407 -5.474221 -0.084303 -1.854659 5.104729 -2.011429 0.367356 12.151749 0.469537 0.240079 0.614262 1.588954 0.180913 -6.186209 -1.965242 -2.784273 -15.852661 -0.303461 -3.304651 21.826833 -0.200420 -1.737598 9.544116 0.000000 0.000000 0.000000 3.604651 1.494542 -13.186844 10.684848 -17.803357 1.678506 25.752953 4.122722 -19.530603 0.000000 0.000000 0.000000 -7.125000 0.000000 0.000000 -2.622054 51.457673 0.417331 0.000000 0.000000 0.000000 0.572943 -3.134280 3.682442 -11.812231 -19.522477 -2.039088 -15.666288 4.245990 -13.797260 0.000000 0.000000 0.000000 7.125000 0.000000 0.000000 8.041533 15.761054 5.602368
0.680500 17.946563 -22.043862 0.863393 -1.848774 -4.070745 0.000000 0.000000 0.000000 -25.376365 -5.548782 -6.803874 2.261278 9.390354 27.024193 0.436090 -2.716312 -11.836643 0.009167 0.408457 1.122573 0.000000 0.000000 0.000000 20.744119 8.496786 -23.334703 -14.141847 -19.155709 72.636599 -0.056706 -2.546698 -6.148802 -0.055605 -1.504138 4.137508 -2.118472 0.267410 12.179987 0.521033 0.095175 0.568732 1.728699 0.114629 -6.244595 -2.033977 -2.724382 -15.705030 -0.291796 -3.209375 21.790643 -0.170121 -1.698260 9.504669 0.000000 0.000000 0.000000 3.596515 1.373473 -13.378009 10.856201 -18.067358 1.731216 25.550069 4.059557 -19.702760 0.000000 0.000000 0.000000 -7.125000 0.000000 0.000000 -2.868982 51.606580 0.467882 0.000000 0.000000 0.000000 0.525734 -2.788418 3.617521 -11.785253 -19.481859 -2.030084 -16.860393 3.145494 -15.890547 0.000000 0.000000 0.000000 7.125000 0.000000 0.000000 7.287850 13.498463 5.398625
0.680477 17.943045 -21.930549 0.897099 -1.717525 -4.104637 0.000000 0.000000 0.000000 -25.484198 -5.519481 -6.357347 2.243122 9.355161 26.912694 0.429766 -2.455082 -11.780604 0.001231 -0.206687 -0.567971 0.000000 0.000000 0.000000 20.607506 8.636909 -23.847201 -13.898468 -19.082875 71.894059 -0.085359 -2.211779 -6.795464 -0.034307 -1.195057 3.285719 -2.166733 0.190488 12.155369 0.575177 -0.009425 0.589695 1.831124 0.064903 -6.203918 -2.092930 -2.674995 -15.687987 -0.282738 -3.127523 21.756440 -0.146178 -1.664072 9.490133 0.000000 0.000000 0.000000 3.601786 1.114593 -13.545248 11.010713 -18.304651 1.779336 25.394854 4.099653 -19.999993 0.000000 0.000000 0.000000 -7.125000 0.000000 0.000000 -3.099235 51.898213 0.526994 0.000000 0.000000 0.000000 0.481497 -2.554877 3.581604 -11.758457 -19.441484 -2.021165 -18.162481 1.625284 -18.864292 0.000000 0.000000 0.000000 7.125000 0.000000 0.000000 6.516698 10.302078 5.281291
0.679936 17.944127 -21.817365 0.889932 -1.710966 -4.196049 0.000000 0.000000 0.000000 -25.553230 -5.352275 -5.827196 2.236496 9.342314 26.872059 0.450387 -2.447510 -12.068972 0.001975 0.153350 0.421406 0.000000 0.000000 0.000000 20.545708 8.887279 -24.228401 -13.635658 -18.998900 71.087845 -0.110578 -1.982572 -7.328252 -0.039243 -1.277409 3.512492 -2.169911 0.171151 12.204659 0.615136 -0.033833 0.627693 1.879331 0.053071 -6.190058 -2.048373 -2.682027 -15.692450 -0.369418 -3.128064 21.776453 -0.183771 -1.670563 9.495677 0.000000 0.000000 0.000000 3.661015 0.814258 -13.770331 11.156351 -18.527435 1.825447 25.365172 4.355838 -20.643057 0.000000 0.000000 0.000000 -7.125000 0.000000 0.000000 -3.297814 52.582250 0.617393 0.000000 0.000000 0.000000 0.459997 -2.413769 3.333939 -11.647843 -19.274346 -1.984586 -18.250175 1.055512 -20.643723 0.000000 0.000000 0.000000 7.125000 0.000000 0.000000 6.564297 8.457604 5.564589
0.678977 17.939385 -21.707417 0.910323 -1.664670 -4.259409 0.000000 0.000000 0.000000 -25.640267 -5.154694 -5.338686 2.229718 9.329049 26.830130 0.506142 -2.544573 -12.784146 0.005193 0.437489 1.202233 0.000000 0.000000 0.000000 20.439833 9.110928 -24.663538 -13.357774 -18.906285 70.231997 -0.132258 -1.814609 -7.781069 -0.040677 -1.301715 3.579360 -2.177124 0.156039 12.293268 0.624150 -0.056071 0.648335 1.897127 0.042647 -6.216696 -1.979303 -2.714751 -15.729266 -0.448827 -3.172073 21.827755 -0.229357 -1.694335 9.518159 0.000000 0.000000 0.000000 3.774294 0.513427 -14.048740 11.308041 -18.758707 1.873957 25.353951 4.614002 -21.250380 0.000000 0.000000 0.000000 -7.125000 0.000000 0.000000 -3.474963 53.230356 0.705393 0.000000 0.000000 0.000000 0.477397 -2.252678 3.120226 -11.557821 -19.138153 -1.954935 -18.249104 0.757665 -21.320913 0.000000 0.000000 0.000000 7.125000 0.000000 0.000000 6.603599 7.760285 5.690303
0.677499 17.929799 -21.600202 0.951540 -1.571931 -4.295213 0.000000 0.000000 0.000000 -25.740060 -4.950522 -4.892777 2.223309 9.316424 26.790238 0.581445 -2.700146 -13.734655 0.009514 0.586766 1.612476 0.000000 0.000000 0.000000 20.296787 9.302959 -25.147186 -13.065584 -18.805350 69.328858 -0.151416 -1.698919 -8.176968 -0.039421 -1.281389 3.523301 -2.194240 0.137089 12.400294 0.614680 -0.086388 0.658062 1.902619 0.028651 -6.264757 -1.902062 -2.763091 -15.778559 -0.522422 -3.241211 21.891029 -0.277856 -1.728406 9.547269 0.000000 0.000000 0.000000 3.919906 0.204686 -14.363394 11.461080 -18.991426 1.923301 25.339215 4.789843 -21.690431 0.000000 0.000000 0.000000 -7.125000 0.000000 0.000000 -3.614967 53.698038 0.774179 0.000000 0.000000 0.000000 0.518009 -2.079826 2.947113 -11.486833 -19.030592 -1.931673 -18.196744 0.659372 -21.144379 0.000000 0.000000 0.000000 7.125000 0.000000 0.000000 6.625384 7.949084 5.684653
0.673916 17.916682 -21.495402 0.986564 -1.309053 -4.267965 0.000000 0.000000 0.000000 -25.826536 -4.931726 -4.558973 2.222227 9.314328 26.783544 0.572453 -2.607787 -13.637631 0.004916 -0.092606 -0.254377 0.000000 0.000000 0.000000 20.121535 9.376318 -25.703301 -12.744964 -18.686825 68.330151 -0.173052 -1.634822 -8.629229 -0.038474 -1.265770 3.480435 -2.285247 0.040470 12.375210 0.665660 -0.223237 0.695722 2.031488 -0.036257 -6.203500 -1.943306 -2.764173 -15.689918 -0.594159 -3.216330 21.819900 -0.290432 -1.728473 9.505214 0.000000 0.000000 0.000000 3.960473 -0.186183 -14.621810 11.577577 -19.168030 1.961435 25.129751 4.050633 -20.608019 0.000000 0.000000 0.000000 -7.125000 0.000000 0.000000 -3.531195 52.501361 0.653626 0.000000 0.000000 0.000000 0.482377 -1.947914 2.929398 -11.449105 -18.973324 -1.919435 -18.336635 0.435101 -20.989275 0.000000 0.000000 0.000000 7.125000 0.000000 0.000000 6.526332 8.089448 5.580462
0.670700 17.904956 -21.390153 1.059339 -0.982819 -4.196707 0.000000 0.000000 0.000000 -25.957677 -4.998618 -4.240098 2.219223 9.308510 26.765112 0.586733 -2.781616 -13.785606 0.002282 -0.298952 -0.821382 0.000000 0.000000 0.000000 19.890944 9.408368 -26.290091 -12.411175 -18.557174 67.284203 -0.191989 -1.545530 -8.989544 -0.043090 -1.336536 3.675370 -2.435847 -0.095373 12.349798 0.728256 -0.420251 0.665118 2.217170 -0.127097 -6.209608 -2.007986 -2.730693 -15.574324 -0.637306 -3.145230 21.785092 -0.283375 -1.705922 9.471544 0.000000 0.000000 0.000000 3.963330 -0.432751 -14.924440 11.721027 -19.384759 2.008894 25.001027 3.277639 -19.465360 0.000000 0.000000 0.000000 -7.125000 0.000000 0.000000 -3.370242 51.253394 0.523134 0.000000 0.000000 0.000000 0.411611 -1.653377 3.117664 -11.485204 -19.028086 -1.931247 -18.489246 -0.018096 -21.299999 0.000000 0.000000 0.000000 7.125000 0.000000 0.000000 6.450511 7.748278 5.557624
0.667845 17.895006 -21.283962 1.152989 -0.652603 -4.103962 0.000000 0.000000 0.000000 -26.111159 -5.082033 -3.925822 2.213925 9.298192 26.732509 0.616732 -3.125338 -14.099244 0.001236 -0.162847 -0.447364 0.000000 0.000000 0.000000 19.635093 9.435329 -26.873288 -12.064118 -18.416785 66.190962 -0.209146 -1.443794 -9.289709 -0.050360 -1.448526 3.983790 -2.616911 -0.235700 12.353487 0.794538 -0.628452 0.581410 2.426732 -0.220755 -6.286852 -2.082940 -2.680065 -15.484541 -0.649845 -3.054623 21.813544 -0.262628 -1.671810 9.465529 0.000000 0.000000 0.000000 3.947987 -0.571715 -15.272965 11.884031 -19.630450 2.063227 24.976950 2.620946 -18.496610 0.000000 0.000000 0.000000 -7.125000 0.000000 0.000000 -3.158169 50.209851 0.405324 0.000000 0.000000 0.000000 0.323570 -1.241542 3.402065 -11.565575 -19.149998 -1.957488 -18.718499 -0.591771 -21.763060 0.000000 0.000000 0.000000 7.125000 0.000000 0.000000 6.335959 7.239380 5.522636
